<svg xmlns="http://www.w3.org/2000/svg" viewBox="0 0 256 256" width="100%" height="100%" role="img" aria-label="BlueStick">
  <defs>
    <linearGradient id="batonCore" x1="74" y1="44" x2="182" y2="212" gradientUnits="userSpaceOnUse">
      <stop offset="0" stop-color="#7dd3fc"/>
      <stop offset="0.42" stop-color="#0ea5e9"/>
      <stop offset="1" stop-color="#1d4ed8"/>
    </linearGradient>
    <linearGradient id="batonEdge" x1="92" y1="54" x2="168" y2="202" gradientUnits="userSpaceOnUse">
      <stop offset="0" stop-color="#f8fafc" stop-opacity="0.95"/>
      <stop offset="0.54" stop-color="#67e8f9" stop-opacity="0.78"/>
      <stop offset="1" stop-color="#2563eb" stop-opacity="0.8"/>
    </linearGradient>
    <filter id="softGlow" x="-32" y="-32" width="320" height="320" color-interpolation-filters="sRGB">
      <feGaussianBlur stdDeviation="5" result="blur"/>
      <feFlood flood-color="#38bdf8" flood-opacity="0.55"/>
      <feComposite in2="blur" operator="in"/>
      <feComposite in="SourceGraphic" operator="over"/>
    </filter>
  </defs>

  <rect x="28" y="28" width="200" height="200" rx="44" fill="#061827"/>
  <path d="M64 204h128" stroke="#38bdf8" stroke-width="2" stroke-linecap="round" opacity="0.22"/>
  <path d="M52 68h42m68 0h42M52 188h38m76 0h38" stroke="#38bdf8" stroke-width="2" stroke-linecap="round" opacity="0.18"/>

  <g fill="none" stroke-linecap="round" stroke-linejoin="round">
    <path d="M88 78H56v34" stroke="#22d3ee" stroke-width="8"/>
    <path d="M168 178h32v-34" stroke="#22d3ee" stroke-width="8"/>
    <path d="M170 96h30V66" stroke="#60a5fa" stroke-width="7"/>
    <path d="M86 160H58v28" stroke="#60a5fa" stroke-width="7"/>
    <path d="M100 118H70" stroke="#7dd3fc" stroke-width="6"/>
    <path d="M156 138h30" stroke="#7dd3fc" stroke-width="6"/>
  </g>

  <g filter="url(#softGlow)" transform="rotate(-28 128 128)">
    <rect x="108" y="44" width="40" height="168" rx="15" fill="url(#batonCore)"/>
    <rect x="120" y="56" width="8" height="144" rx="4" fill="#ecfeff" opacity="0.88"/>
    <path d="M110 82h36M110 100h36M110 160h36M110 178h36" stroke="#071a2a" stroke-width="5" stroke-linecap="round" opacity="0.68"/>
    <rect x="116" y="44" width="24" height="168" rx="12" fill="url(#batonEdge)" opacity="0.34"/>
  </g>

  <g fill="#e0f2fe" stroke="#061827" stroke-width="4">
    <circle cx="56" cy="78" r="10"/>
    <circle cx="200" cy="178" r="10"/>
    <circle cx="200" cy="66" r="8"/>
    <circle cx="58" cy="188" r="8"/>
    <circle cx="70" cy="118" r="7"/>
    <circle cx="186" cy="138" r="7"/>
  </g>
</svg>
